<?xml version="1.0" encoding="utf-8"?>
<!-- Generator: Adobe Illustrator 27.9.0, SVG Export Plug-In . SVG Version: 6.00 Build 0)  -->
<svg version="1.1" id="Layer_1" xmlns="http://www.w3.org/2000/svg" xmlns:xlink="http://www.w3.org/1999/xlink" x="0px" y="0px"
	 viewBox="0 0 1080 1080" style="enable-background:new 0 0 1080 1080;" xml:space="preserve">
<style type="text/css">
	.st0{fill:#FFFFFF;}
</style>
<g>
	<path class="st0" d="M235.59,953.19c-136.94,0-136.94-195.59,0-195.59S372.53,953.19,235.59,953.19z M235.59,947.24
		c105.39,0,105.68-183.68,0-183.68C130.2,763.56,130.5,947.24,235.59,947.24z M329.66,978.2c-11.31,11.61-25.01,22.33-41.68,22.33
		c-27.69,0-47.93-29.17-66.98-29.17c-2.38,0-4.47,0.3-6.55,1.19c-3.87,1.49-5.66-2.68-1.79-5.06c9.23-6.25,19.05-7.14,29.17-5.95
		c26.5,2.98,41.38,30.37,64.9,26.79c16.67-2.98,7.74-17.27,11.91-26.79c1.19-2.98,4.47-4.46,7.74-4.46c2.68,0,5.06,0.89,6.55,2.68
		C338.29,965.99,334.72,972.84,329.66,978.2z"/>
	<path class="st0" d="M487.15,945.45l-29.77,3.27c-4.76,0.6-5.66-1.19-5.66-5.66c0-5.66,0-11.31,0-17.27
		C441,942.47,421.06,950.81,402,950.81c-24.41,0-47.63-13.4-47.63-39.59v-68.17c0-16.08-2.08-15.78-16.08-15.78
		c-2.98,0-4.47-4.17,0.3-5.36c10.72-2.98,22.62-6.55,32.45-11.31c1.79-0.89,3.57-0.6,3.57,1.49v99.13
		c0,19.35,16.08,28.28,33.34,28.28c20.84,0,43.76-12.8,43.76-36.62v-59.84c0-16.08-2.08-15.78-16.08-15.78
		c-3.27,0-4.47-4.17,0.3-5.36c10.72-2.98,22.62-6.55,32.45-11.31c1.79-0.89,3.57-0.6,3.57,1.49v118.48c0,8.04,6.25,9.82,15.18,10.42
		C491.31,941.28,491.02,945.15,487.15,945.45z"/>
	<path class="st0" d="M596.4,841.55c-3.87,0-7.74-2.38-10.12-8.33c-3.87-9.53-11.31-13.4-19.65-13.4c-17.27,0-37.81,16.37-37.81,39
		v69.96c0,15.78,8.63,13.1,18.75,14.89c2.68,0.59,2.68,5.06-0.3,5.06h-57.45c-2.98,0-2.98-4.47-0.3-5.06
		c10.12-1.79,18.75,0.89,18.75-14.89v-85.74c0-16.08-1.79-15.78-16.08-15.78c-2.98,0-4.46-4.17,0.3-5.36
		c10.72-2.98,22.62-6.55,32.75-11.31c1.49-0.89,3.57-0.6,3.57,1.49v23.82c9.23-16.37,26.49-25.9,43.76-25.9
		c9.23,0,18.46,2.68,26.79,8.63C613.67,829.05,605.33,841.55,596.4,841.55z"/>
	<path class="st0" d="M616.06,776.36c6.55,0,13.1,4.76,12.21,15.78c-0.89,7.74-6.85,19.35-11.91,26.5
		c-2.08,2.98-5.66,1.49-4.47-1.79c5.06-16.97-3.27-15.78-6.25-22.92C600.87,782.91,608.61,776.36,616.06,776.36z"/>
	<path class="st0" d="M749.72,948.72c-3.27,0.89-6.85,1.49-10.42,1.49c-9.82,0-19.35-3.87-19.35-16.97c0-5.06,0-10.12,0-14.88
		c-6.85,17.86-23.22,33.04-52.99,33.04c-26.5,0-41.08-16.37-41.08-33.64c0.3-35.72,41.08-42.87,69.66-44.36
		c13.99-0.89,24.41-0.3,24.41-2.38c0-7.74,0-15.48,0-23.52c0-20.84-17.56-29.77-35.72-29.77c-7.74,0-15.18,1.49-21.73,4.46
		c-11.91,5.95-11.02,17.56-7.44,25.6c4.17,9.82-2.38,16.37-8.93,16.37c-5.66,0-11.31-4.46-11.61-15.18c0-2.38,0.6-4.76,1.49-7.44
		c0-0.3,0-0.3,0-0.59c0.3-0.6,0.59-1.19,0.89-1.79c0.89-2.68,2.08-5.66,3.87-7.74c1.19-1.79,2.38-3.28,3.57-4.76
		c0.3-0.3,0.3-0.3,0.6-0.3c0.89-1.49,2.08-2.38,3.27-3.27c10.72-8.93,25.9-13.4,40.79-13.4c25.9,0,51.2,13.1,51.2,37.81
		c0,26.2,0,55.67,0,82.17c0,12.21,3.57,14.29,9.23,14.29C752.4,943.96,753,947.83,749.72,948.72z M719.95,887.7
		c0-3.27,0-6.25,0-9.23c-25.6,0-70.85,2.38-70.85,39.59c0,13.1,9.23,23.82,24.11,23.82C691.37,941.88,719.06,930.86,719.95,887.7z"
		/>
	<path class="st0" d="M906.31,948.72h-57.46c-2.98,0-2.98-4.47-0.3-5.06c10.12-1.79,18.75,0.89,18.75-14.89v-79.19
		c0-19.35-15.78-28.28-33.34-28.28c-20.54,0-43.46,12.8-43.46,36.62v70.85c0,15.78,8.63,13.1,18.75,14.89
		c2.98,0.59,2.68,5.06-0.3,5.06h-57.16c-3.27,0-3.27-4.47-0.3-5.06c9.82-1.79,18.46,0.89,18.46-14.89v-85.74
		c0-16.08-1.79-15.78-16.08-15.78c-2.98,0-4.46-4.17,0.3-5.36c11.01-2.98,22.92-6.55,32.75-11.31c1.49-0.89,3.57-0.6,3.57,1.49
		v22.62c10.42-16.67,30.37-24.71,49.42-24.71c24.71,0,47.93,13.4,47.93,39.59v79.19c0,15.78,8.63,13.1,18.75,14.89
		C909.29,944.26,909.29,948.72,906.31,948.72z"/>
</g>
<g>
	<path class="st0" d="M493.73,1063.22h-29.6c-1.65,0-1.65-2.25-0.15-2.4c4.96-0.9,9.32,0.3,9.32-7.51v-37.26h-56.5v37.26
		c0,7.81,4.36,6.61,9.47,7.51c1.5,0.15,1.35,2.4-0.15,2.4h-29.6c-1.65,0-1.65-2.25-0.15-2.4c4.96-0.9,9.32,0.3,9.32-7.51v-74.23
		c0-7.96-4.36-6.61-9.32-7.51c-1.5-0.3-1.5-2.55,0.15-2.55h29.6c1.5,0,1.65,2.25,0.15,2.55c-5.11,0.9-9.47-0.45-9.47,7.51v33.51
		h56.5v-33.51c0-7.96-4.36-6.61-9.32-7.51c-1.5-0.3-1.5-2.55,0.15-2.55h29.6c1.5,0,1.65,2.25,0.15,2.55
		c-5.11,0.9-9.47-0.45-9.47,7.51v74.23c0,7.81,4.36,6.61,9.47,7.51C495.38,1060.96,495.23,1063.22,493.73,1063.22z"/>
	<path class="st0" d="M562.84,1065.47c-46.28,0-46.28-71.52,0-71.52C609.27,993.95,609.27,1065.47,562.84,1065.47z M562.84,996.95
		c-31.4,0-31.25,65.51,0,65.51C594.1,1062.46,594.25,996.95,562.84,996.95z"/>
	<path class="st0" d="M708.89,1062.31l-15.03,1.65c-2.4,0.3-2.86-0.6-2.86-2.85c0-2.86,0-5.71,0-8.71
		c-5.41,8.41-15.48,12.62-25.09,12.62c-12.32,0-24.04-6.76-24.04-19.98v-34.41c0-8.11-1.05-7.96-8.11-7.96c-1.5,0-2.25-2.1,0.15-2.7
		c5.41-1.5,11.42-3.31,16.38-5.71c0.9-0.45,1.8-0.3,1.8,0.75v50.03c0,9.77,8.11,14.27,16.83,14.27c10.52,0,22.09-6.46,22.09-18.48
		v-30.2c0-8.11-1.05-7.96-8.11-7.96c-1.65,0-2.25-2.1,0.15-2.7c5.41-1.5,11.42-3.31,16.38-5.71c0.9-0.45,1.8-0.3,1.8,0.75v59.8
		c0,4.06,3.16,4.96,7.66,5.26C710.99,1060.21,710.84,1062.16,708.89,1062.31z"/>
	<path class="st0" d="M802.2,1044.88c0,15.48-14.57,20.73-27.65,20.73c-10.07,0-20.28-3.61-27.05-10.07c-1.5-1.5-0.6-3.16,0.9-3.16
		c0.45,0,1.05,0.15,1.5,0.6c4.96,4.36,13.22,8.26,25.24,8.26c11.72,0,18.33-6.76,18.33-13.37c0-8.56-11.42-12.02-18.33-14.27
		c-10.97-3.76-25.69-6.01-25.69-20.88c0-13.67,12.32-18.93,24.04-18.78c9.47,0.15,16.08,1.95,21.04,6.91
		c6.31,6.31,2.4,11.72-1.8,11.72c-2.1,0-4.36-1.35-5.26-4.81c-1.65-6.31-5.71-9.92-13.97-9.92c-9.92,0-15.33,5.56-15.33,11.12
		c0,9.32,12.47,11.72,19.53,14.12C788.67,1026.7,802.2,1030.91,802.2,1044.88z"/>
	<path class="st0" d="M902.26,1029.41h-47.93c0.15,22.39,12.92,31.25,25.84,30.95c8.71-0.15,16.53-3.46,21.19-11.27
		c0.6-1.05,1.5-1.5,2.25-1.5c1.35,0,2.55,1.65,1.5,3.46c-4.51,8.26-15.18,13.67-27.35,13.67c-16.83,0-34.56-9.47-34.86-35.16
		c-0.3-21.04,12.17-35.76,32.75-35.76c18.48,0,31.55,12.02,31.55,30.8C907.22,1027.15,905.72,1029.41,902.26,1029.41z
		 M897.31,1017.69c0-9.92-7.06-19.53-20.43-19.53c-14.57,0.45-21.34,11.12-22.24,27.04h34.71
		C895.05,1025.2,897.31,1022.65,897.31,1017.69z"/>
</g>
<g>
	<g>
		<path class="st0" d="M476.5,294.66c-16.64-8.33-14.08-41.18,1.54-53.47c5.84-4.59,11.86-4.33,16.81,1.31
			c2.51,2.86,4.75,6.37,5.88,9.97c3.47,11.04-1.68,17.43-13.21,17.59c-4.36,0.06-8.85,0.49-12.98,1.76
			c-1.98,0.61-3.93,3.35-4.54,5.51c-0.27,0.95,2.54,3.51,4.38,4.23c6.81,2.67,13.84,4.77,20.71,7.29
			c10.38,3.8,20.69,7.79,31.06,11.61c1.12,0.41,2.61,0.61,3.7,0.24c14.82-4.99,29.65-9.98,44.38-15.23
			c4.73-1.68,9.19-4.11,13.84-6.23c-1.97-5.69-5.45-8.03-10.24-8.46c-2.71-0.24-5.48,0.12-8.18-0.18c-3.18-0.36-6.65-0.49-9.4-1.88
			c-6.53-3.3-7.14-13.37-1.76-21.93c5.19-8.26,12.09-10.44,18.8-5.92c13.99,9.4,19.12,33.76,9.75,47.82
			c-1.99,2.98-5.37,5.02-7.59,7.03c2.86,6.99,6.4,13.84,8.48,21.1c3.18,11.09-1.41,21.25-10.5,26.39c-6.05,3.42-12,3.35-17.19-0.96
			c-7.47-6.2-14.31-13.15-21.63-19.54c-12.02-10.5-8.24-10.58-20.93,0.12c-5.99,5.05-11.22,10.99-17.16,16.12
			c-7.74,6.69-14.5,7.63-21.5,3.72c-7.6-4.24-12.46-13.21-10.5-22.13C470.43,311.78,473.74,303.38,476.5,294.66z M537.63,308.62
			c8.48,7.91,15.77,15.05,23.47,21.72c2.6,2.25,6.06,3.97,9.41,4.82c9.32,2.35,16.04-2.98,15.92-12.48
			c-0.12-9.92-4.78-18.14-10.08-26.16C563.49,300.54,551.08,304.42,537.63,308.62z M518.82,308.52c-13.09-4.26-25.02-8.19-37-11.93
			c-0.91-0.28-2.85,0.46-3.28,1.27c-4.24,8-8.31,16.12-7.95,25.56c0.3,7.77,5.88,12.98,13.53,11.52c4.32-0.82,8.87-2.87,12.25-5.66
			C503.86,323.13,510.67,316.17,518.82,308.52z M496.75,256.48c-5.64-7.96-10.83-7.47-16.07,0
			C485.69,256.48,490.66,256.48,496.75,256.48z M577.04,257.9c-7.13-8.54-12.17-8.85-16.9-0.94
			C565.77,257.27,570.73,257.55,577.04,257.9z"/>
		<path class="st0" d="M552.53,146.61c-2.15,6.24-5.36,11.57-5.59,17.03c-0.6,13.95,0.03,27.96,0.35,41.94
			c0.41,17.42,1.47,34.85,1.38,52.26c-0.06,12.58-4.68,24.05-11.98,34.32c-1.03,1.46-2.34,2.72-3.92,3.9
			c11.94-25.97,7-53.09,6.09-79.9c-0.43-12.81-1.37-25.62-1.31-38.42C537.62,165.55,542.97,155.43,552.53,146.61z"/>
		<path class="st0" d="M524.25,297.04c-7-6.88-10.48-14.5-13.25-22.52c-4.33-12.57-3.84-25.62-3.39-38.6
			c0.43-12.47,1.53-24.92,1.89-37.39c0.5-17.2,4.78-34.86-5.63-51c10.07,8.12,15.45,18.59,15.15,31.29
			c-0.44,18.11-1.71,36.2-2.46,54.3c-0.69,16.73-1.91,33.52,2.72,49.94C520.51,287.44,522.31,291.64,524.25,297.04z"/>
		<path class="st0" d="M608.64,177.72c-2.12,6.72-5.22,12.27-5.38,17.9c-0.34,12.41,0.74,24.87,1.36,37.3
			c0.86,17.23,2.51,34.46,2.53,51.69c0.02,13.38-4.74,25.66-14.28,36.97c1.9-7.39,4.68-13.62,4.9-19.93
			c0.52-15.49,0.13-31.03-0.41-46.54c-0.59-16.88-2.34-33.74-2.47-50.62C594.81,194.08,600.67,185.73,608.64,177.72z"/>
		<path class="st0" d="M449.55,177.68c8.91,8.26,13.67,17.95,13.66,29.24c-0.01,12.27-1.26,24.54-2.11,36.81
			c-1.32,18.9-4.35,37.78-1.45,56.74c1.02,6.67,3.32,13.13,5.27,20.63c-5.57-6.36-9.01-13.09-11.38-20.42
			c-3.98-12.29-3.78-24.96-2.84-37.59c1.27-17.04,3.03-34.04,4.43-51.07c0.91-11.16,1.05-22.25-5.44-32.2
			C449.47,179.49,449.61,178.91,449.55,177.68z"/>
		<path class="st0" d="M486.05,217.31c3.13-2.75,6.05-5.31,9.43-8.28c2.55,2.87,4.97,5.59,7.79,8.76
			c-3.46,3.18-6.67,6.11-10.08,9.24c-2.53-3.02-4.79-5.73-7.43-8.89c-3.4,2.89-6.69,5.69-10.13,8.62c-2.51-3.13-4.72-5.91-7.24-9.06
			c3.17-2.91,6.15-5.65,9.66-8.88C480.64,211.58,483.12,214.21,486.05,217.31z"/>
		<path class="st0" d="M533.16,136.63c-4.02-0.37-6.6-0.61-10.51-0.97c6.28,7.57,11.98,3.52,17.82,2.27
			c-4.48,7.86-15.26,6.48-20.52,13.46c1.5-2.46,3.01-4.92,3.9-6.37c-1.7-2.55-4.6-6.33-4.32-6.58c3.29-2.97,7.05-5.41,10.68-7.99
			C531.22,132.58,532.24,134.71,533.16,136.63z"/>
		<path class="st0" d="M553.88,218.4c2.68-3.25,4.91-5.97,7.57-9.2c3.32,2.85,6.44,5.54,9.76,8.39c-2.39,3.12-4.52,5.91-7.01,9.17
			C560.79,224,557.59,221.41,553.88,218.4z"/>
		<path class="st0" d="M589.23,216.89c-2.57,3.25-4.84,6.12-7.39,9.34c-3.58-3-6.76-5.67-10.27-8.63c2.71-3.12,5.11-5.86,7.72-8.87
			C582.74,211.56,585.84,214.1,589.23,216.89z"/>
	</g>
	<path class="st0" d="M704.74,226.52v172.03l-18.16,15.98v-188c0-29.4-23.93-53.32-53.32-53.32h-9.09l-0.06-64.38
		c-3.44-12.08-8.83-22.35-16-30.54c-9.19-10.49-18.75-15.11-33.21-22.12c-12.08-5.84-27.07-13.1-44.88-25.91l-0.92-0.67l-0.91,0.67
		c-17.83,12.83-32.82,20.07-44.86,25.91c-14.48,7-24.04,11.63-33.23,22.12c-7.18,8.19-12.55,18.46-16,30.54l-0.08,0.2v64.18h-9.07
		c-29.42,0-53.32,23.93-53.32,53.32v136.87c-6.02-4.27-12.1-8.34-18.18-12.24V226.52c0-36.34,27.27-66.45,62.41-70.91v-49.13
		l0.77-2.66c4.19-14.66,10.84-27.29,19.79-37.5c11.63-13.26,23.69-19.11,38.96-26.5c11.45-5.53,25.66-12.42,42.19-24.32l11.53-8.28
		l11.53,8.28c16.53,11.9,30.75,18.79,42.17,24.32c15.29,7.4,27.37,13.24,38.98,26.5c8.95,10.21,15.62,22.82,19.81,37.5l0.75,2.66
		v49.13C677.49,160.08,704.74,190.18,704.74,226.52z"/>
	<g>
		<path class="st0" d="M617.24,367.76l-19.97,18.92c0,0,3.42,13.08,19.97,22.43c0,0,18.57-10.51,22.08-20.67
			C639.31,388.44,631.6,373.02,617.24,367.76z"/>
		<path class="st0" d="M644.48,396.04l-19.97,18.92c0,0,3.42,13.08,19.97,22.43c0,0,18.57-10.51,22.08-20.67
			C666.55,416.71,658.84,401.3,644.48,396.04z"/>
		<path class="st0" d="M499.16,356.05l-17.95,17.01c0,0,3.08,11.76,17.95,20.16c0,0,16.69-9.45,19.84-18.58
			C519,374.63,512.07,360.77,499.16,356.05z"/>
		<path class="st0" d="M431.8,467.79l-51.4-48.07c-85.17-74.12-124.41-83.55-124.41-83.55s92.87-0.72,170.93,85.88l36.79-30.7
			c0,0,8.54,10.77,36.39,13.01L431.8,467.79z"/>
		<path class="st0" d="M908.59,318.61l-78.4,71.72c-6.19,4.99-12.41,10.34-18.56,16L655.95,549.74l-22.15-22.15l24.93-22.61
			l156.56-138.91C845.73,342.13,877.93,327.37,908.59,318.61z"/>
		<polygon class="st0" points="717.16,638.42 709.24,756.12 538.58,612.93 562.37,591.85 683.01,688.83 683.01,651.43 
			582.56,573.93 628.81,532.06 651.88,553.7 632.5,570.85 		"/>
		<polygon class="st0" points="341.31,638.42 349.24,756.12 519.89,612.93 496.1,591.85 375.46,688.83 375.46,651.43 475.91,573.93 
			428.99,531.45 406.59,553.7 425.97,570.85 		"/>
		<path class="st0" d="M423.36,471.51l-22.39,21.58c-46.92-41.91-32.48-30.06-32.48-30.06s-63.02-56.11-106.93-93.1
			c-42.52-35.85-81.65-51.09-84.06-52.01c1.96,0.27,34.46,5.29,109.67,44.28c0,0,49.19,29.68,98.79,75.62L423.36,471.51z"/>
		<path class="st0" d="M771.19,365.13c0,0-49.19,29.67-98.79,75.62L529.17,563.52l-9.56-9.35l114.05-104.88l-28.48-27.25
			c-20.32-17.09-44.72-4.47-44.72-4.47l-56.92,50.21c-15.86,12.8-6.89,21.76-6.89,21.76l22.96,25.21l-21.87,22.54l-42.22-37.34
			l34.21-30.02c-13.82,2.11-32.63-14.03-32.63-14.03l-25.88,22.54l-23.38,20.81l-0.77,0.7l-6.68,5.87l-0.91-0.84L242.91,366.08
			c-31.29-25.28-63.78-40.64-94.5-49.61l90.78,83.57c2.46,2.04,4.92,4.15,7.38,6.29l154.34,142.6l23.03-21.83l7.28-6.89
			c48.03,42.89,93.27,83.32,97.6,87.23c0.21-0.18,0.35-0.32,0.35-0.32l160.71-141.19c0,0,63.04-56.08,106.91-93.1
			c42.58-35.83,81.67-54,84.06-54.92C878.88,318.19,846.39,326.1,771.19,365.13z M562.6,453.76c25.31-22.25,30.8-7,30.8-7
			l-53.37,49.68l-10.86-11.57L562.6,453.76z"/>
	</g>
</g>
</svg>
